<svg xmlns="http://www.w3.org/2000/svg" viewBox="0 0 361.92773 20.34961" enable-background="new 0 0 361.92773 20.34961" aria-labelledby="title desc" role="img" class="diff-banner-sm-md" fill="#fff">
    <title id="title">Small / Medium REI Difference Banner</title>
    <desc id="desc">The REI Difference - 100% Satisfaction Guaranteed - Gear &#38; Advice You Can Trust</desc>
    <g>
        <path d="m239.07 9.735c.294 0 .557-.045.79-.135.232-.09.43-.214.591-.373.16-.159.284-.349.37-.567s.13-.46.13-.725c0-.264-.03-.493-.091-.688-.061-.194-.155-.372-.284-.531-.13-.158-.294-.306-.492-.44-.199-.135-.434-.274-.705-.419-.175-.09-.319-.174-.434-.252s-.206-.155-.275-.233-.119-.156-.148-.234c-.03-.078-.046-.165-.046-.261 0-.156.055-.287.162-.392.108-.105.252-.157.433-.157.107 0 .203.009.287.026.084.019.164.05.239.095.074.045.149.104.225.176.075.071.157.159.248.261l.746-.747c-.228-.294-.472-.518-.733-.671-.261-.152-.589-.229-.985-.229-.264 0-.505.044-.723.131s-.402.207-.555.36c-.151.152-.27.333-.353.54s-.125.427-.125.661c0 .264.034.493.104.688s.169.37.299.526c.129.156.287.297.474.423s.397.249.633.369c.367.192.62.366.759.522.138.156.207.324.207.504 0 .21-.058.376-.175.499s-.293.185-.526.185c-.192 0-.386-.059-.581-.175-.195-.117-.389-.299-.58-.545l-.766.819c.217.27.478.502.783.697.307.194.672.292 1.099.292"/><path d="m244.09 8.322l.297 1.314h1.161l-1.611-6.3h-1.098l-1.611 6.3h1.152l.297-1.314h1.413m-.999-1.817c.029-.126.06-.261.09-.405.03-.144.057-.285.081-.423.023-.138.046-.266.067-.383.021-.117.037-.217.05-.301.012.077.028.178.049.301.021.123.045.255.072.396.027.141.056.285.086.432.029.147.06.28.09.4l.171.747h-.927l.171-.765"/><path d="m247.76 9.637v-5.22h1.3v-1.08h-3.74v1.08h1.31v5.22z"/><path d="m249.68 3.337h1.134v6.3h-1.134z"/><path d="m253.29 9.735c.294 0 .557-.045.79-.135.232-.09.43-.214.591-.373.16-.159.284-.349.37-.567s.13-.46.13-.725c0-.264-.03-.493-.091-.688-.061-.194-.155-.372-.284-.531-.13-.158-.294-.306-.492-.44-.199-.135-.434-.274-.705-.419-.175-.09-.319-.174-.434-.252s-.206-.155-.275-.233-.119-.156-.148-.234c-.03-.078-.046-.165-.046-.261 0-.156.055-.287.162-.392.108-.105.252-.157.433-.157.107 0 .203.009.287.026.084.019.164.05.239.095.074.045.149.104.225.176.075.071.157.159.248.261l.746-.747c-.228-.294-.472-.518-.733-.671-.261-.152-.589-.229-.985-.229-.264 0-.505.044-.723.131s-.402.207-.555.36c-.151.152-.27.333-.353.54s-.125.427-.125.661c0 .264.034.493.104.688s.169.37.299.526c.129.156.287.297.474.423s.397.249.633.369c.367.192.62.366.759.522.138.156.207.324.207.504 0 .21-.058.376-.175.499s-.293.185-.526.185c-.192 0-.386-.059-.581-.175-.195-.117-.389-.299-.58-.545l-.766.819c.217.27.478.502.783.697.307.194.672.292 1.099.292"/><path d="m256.93 6.91h1.48v-1.09h-1.48v-1.394h2.2v-1.089h-3.33v6.3h1.13z"/><path d="m260.08 9.637l.297-1.314h1.413l.297 1.314h1.161l-1.611-6.3h-1.098l-1.611 6.3h1.152m.711-3.132c.029-.126.06-.261.09-.405.03-.144.057-.285.081-.423.023-.138.046-.266.067-.383.021-.117.037-.217.05-.301.012.077.028.178.049.301.021.123.045.255.072.396.027.141.056.285.086.432.029.147.06.28.09.4l.171.747h-.927l.171-.765"/><path d="m267.32 8.125l-.972-.414c-.061.174-.119.318-.176.432-.057.114-.117.206-.18.274-.063.069-.132.119-.207.148-.075.03-.161.045-.257.045-.306 0-.534-.188-.684-.563-.15-.375-.226-.898-.226-1.57s.072-1.192.216-1.562c.145-.369.369-.554.676-.554.21 0 .365.063.468.189.102.126.194.333.279.621l1.053-.342c-.061-.229-.137-.439-.229-.635s-.21-.363-.352-.504c-.141-.141-.309-.252-.504-.333-.194-.081-.427-.122-.697-.122-.348 0-.651.085-.909.252-.258.169-.473.399-.644.693s-.298.639-.382 1.035c-.084.396-.126.822-.126 1.278 0 .449.04.873.121 1.269.081.396.205.739.374 1.03.167.291.381.521.639.688s.561.252.909.252c.485 0 .871-.138 1.156-.414.285-.275.502-.675.652-1.196"/><path d="m271.45 3.337h-3.75v1.08h1.31v5.22h1.13v-5.22h1.31z"/><path d="m272.06 3.337h1.133v6.3h-1.133z"/><path d="m277.67 4.178c-.168-.29-.382-.52-.644-.688-.261-.167-.574-.252-.94-.252s-.683.085-.949.252c-.268.169-.486.399-.657.693s-.297.639-.378 1.035c-.081.396-.121.822-.121 1.278 0 .449.04.873.121 1.269.081.396.205.739.374 1.03.167.291.384.521.647.688s.579.252.945.252c.365 0 .681-.084.944-.252.265-.168.481-.398.653-.692.171-.294.297-.64.378-1.035.081-.396.121-.822.121-1.278 0-.45-.04-.873-.121-1.269-.081-.396-.206-.739-.374-1.031m-.868 3.88c-.142.368-.38.553-.716.553-.342 0-.586-.188-.733-.563s-.221-.898-.221-1.57.07-1.192.212-1.562c.141-.369.383-.554.725-.554.336 0 .577.188.725.563.146.375.22.899.22 1.571s-.07 1.192-.211 1.562"/><path d="m279.94 6.981c0-.096 0-.207 0-.333s-.002-.255-.005-.387-.006-.26-.009-.383-.005-.232-.005-.328c.061.186.134.396.221.63s.173.45.257.648l1.161 2.808h1.079v-6.3h-1.025v2.609c0 .103.0001.217.004.343s.006.256.001.392c.003.135.007.267.013.396.007.129.001.241.001.338-.03-.091-.066-.19-.108-.302s-.085-.227-.131-.347c-.045-.12-.09-.237-.135-.351-.045-.114-.085-.22-.121-.315l-1.107-2.763h-1.134v6.3h1.026v-2.655"/><path d="m239.65 16.11h.9c0 .468-.063.798-.189.989-.126.192-.36.288-.702.288s-.586-.188-.733-.563-.221-.898-.221-1.57.07-1.192.212-1.562c.141-.369.383-.554.725-.554.216 0 .396.061.54.181.144.12.258.33.342.63l1.053-.342c-.138-.546-.372-.948-.702-1.206s-.734-.388-1.215-.388c-.366 0-.683.085-.949.252-.268.169-.486.399-.657.693s-.297.639-.378 1.035c-.081.396-.121.822-.121 1.278 0 .449.04.873.121 1.269.081.396.205.739.374 1.03.167.291.384.521.647.688s.579.252.945.252c.66 0 1.157-.205 1.494-.616.336-.411.504-.997.504-1.76v-1.08h-1.989v1.054"/><path d="m245.18 15.919c0 .547-.057.932-.17 1.153-.113.223-.301.334-.563.334-.257 0-.445-.111-.568-.334-.122-.222-.183-.606-.183-1.153v-3.805h-1.135v3.798c0 .39.035.745.104 1.066s.179.596.329.823c.15.229.344.404.582.526.237.123.524.185.861.185.349 0 .642-.06.88-.18.237-.12.43-.292.577-.518.147-.225.254-.499.32-.823.065-.324.099-.69.099-1.098v-3.78h-1.134v3.805"/><path d="m248.49 12.11l-1.611 6.3h1.152l.297-1.314h1.413l.297 1.314h1.161l-1.611-6.3h-1.098m.081 3.933l.171-.765c.029-.126.06-.261.09-.405.03-.144.057-.285.081-.423.023-.138.046-.266.067-.383.021-.117.037-.217.05-.301.012.077.028.178.049.301.021.123.045.255.072.396.027.141.056.285.086.432.029.147.06.28.09.4l.171.747h-.927"/><path d="m255.36 15.16c.203-.278.304-.64.304-1.084 0-.654-.182-1.145-.544-1.472-.363-.327-.851-.49-1.463-.49h-1.674v6.3h1.134v-2.394h.368l.978 2.394h1.22l-1.089-2.619c.309-.144.563-.355.767-.635m-1.692-.185h-.551v-1.755h.489c.338 0 .576.075.715.226.14.149.209.369.209.657 0 .582-.287.872-.862.872"/><path d="m257.92 12.11l-1.611 6.3h1.152l.297-1.314h1.413l.297 1.314h1.161l-1.611-6.3h-1.098m.081 3.933l.171-.765c.029-.126.06-.261.09-.405.03-.144.057-.285.081-.423.023-.138.046-.266.067-.383.021-.117.037-.217.05-.301.012.077.028.178.049.301.021.123.045.255.072.396.027.141.056.285.086.432.029.147.06.28.09.4l.171.747h-.927"/><path d="m264.11 14.724c0 .103.0001.217.004.343s.006.256.001.392c.003.135.007.267.013.396.007.129.001.241.001.338-.03-.091-.066-.19-.108-.302s-.085-.227-.131-.347c-.045-.12-.09-.237-.135-.351-.045-.114-.085-.22-.121-.315l-1.107-2.763h-1.134v6.3h1.026v-2.655c0-.096 0-.207 0-.333s-.002-.255-.005-.387-.006-.26-.009-.383-.005-.232-.005-.328c.061.186.134.396.221.63s.173.45.257.648l1.161 2.808h1.079v-6.3h-1.025v2.609"/><path d="m265.91 13.194h1.31v5.22h1.13v-5.22h1.3v-1.084h-3.74z"/><path d="m271.55 15.588h1.42v-1.062h-1.42v-1.332h2.11v-1.084h-3.24v6.304h3.32v-1.08h-2.19z"/><path d="m275.8 15.588h1.41v-1.062h-1.41v-1.332h2.11v-1.084h-3.24v6.304h3.32v-1.08h-2.19z"/><path d="m282.14 12.856c-.207-.255-.459-.442-.756-.563s-.635-.18-1.013-.18h-1.422v6.3h1.396c.365 0 .698-.06.998-.18.301-.12.557-.31.77-.567s.377-.586.491-.985c.113-.399.171-.874.171-1.427 0-.552-.054-1.025-.162-1.422-.108-.395-.266-.722-.473-.977m-.571 3.219c-.036.248-.1.463-.192.646-.093.182-.219.325-.38.43s-.367.156-.617.156h-.296v-4.086h.296c.25 0 .456.053.617.157s.287.249.38.435.156.403.192.654.054.52.054.807c0 .286-.018.554-.054.802"/><path d="m185.37 4.784c-.359.41-.913.65-1.66.723v1.681h2.048v11.228h2.715v-15.08h-2.324c-.159.561-.418 1.045-.778 1.454"/><path d="m198.8 5.345c-.373-.696-.861-1.246-1.465-1.648s-1.344-.604-2.22-.604c-.877 0-1.62.201-2.23.604-.611.402-1.11.956-1.498 1.659-.388.704-.668 1.53-.841 2.479-.172.948-.258 1.969-.258 3.061 0 1.077.086 2.09.258 3.038.173.948.445 1.771.819 2.468.373.696.865 1.246 1.477 1.648.61.402 1.354.604 2.23.604.876 0 1.619-.201 2.23-.604.61-.402 1.105-.955 1.486-1.659s.657-1.53.83-2.479c.172-.948.259-1.968.259-3.061 0-1.077-.087-2.09-.259-3.038-.173-.948-.445-1.771-.819-2.468m-2.117 9.38c-.318.852-.842 1.276-1.567 1.276-.74 0-1.277-.433-1.611-1.298s-.501-2.149-.501-3.853c0-1.702.16-2.979.479-3.83.319-.852.85-1.277 1.591-1.277.739 0 1.273.434 1.6 1.299.327.866.49 2.149.49 3.853 0 1.702-.16 2.979-.479 3.83"/><path d="m209.63 5.345c-.373-.696-.861-1.246-1.465-1.648s-1.344-.604-2.22-.604c-.877 0-1.62.201-2.23.604-.611.402-1.11.956-1.498 1.659-.388.704-.668 1.53-.841 2.479-.172.948-.258 1.969-.258 3.061 0 1.077.086 2.09.258 3.038.173.948.445 1.771.819 2.468.373.696.865 1.246 1.477 1.648.61.402 1.354.604 2.23.604.876 0 1.619-.201 2.23-.604.61-.402 1.105-.955 1.486-1.659s.657-1.53.83-2.479c.172-.948.259-1.968.259-3.061 0-1.077-.087-2.09-.259-3.038-.173-.948-.445-1.771-.819-2.468m-2.117 9.38c-.318.852-.842 1.276-1.567 1.276-.74 0-1.277-.433-1.611-1.298s-.501-2.149-.501-3.853c0-1.702.16-2.979.479-3.83.319-.852.85-1.277 1.591-1.277.739 0 1.273.434 1.6 1.299.327.866.49 2.149.49 3.853 0 1.702-.16 2.979-.479 3.83"/><path d="m225.71 9.278c-1.135 0-1.993.42-2.575 1.26-.581.841-.872 1.994-.872 3.459 0 1.437.287 2.572.861 3.405.575.833 1.423 1.25 2.543 1.25 1.121 0 1.979-.424 2.575-1.271.597-.848.895-1.99.895-3.427s-.28-2.575-.841-3.416c-.56-.84-1.422-1.26-2.586-1.26m.98 6.701c-.165.504-.492.755-.98.755s-.818-.237-.991-.711c-.172-.475-.259-1.164-.259-2.069s.083-1.587.248-2.047.492-.689.98-.689.819.236.991.711c.173.474.259 1.163.259 2.068 0 .819-.083 1.48-.248 1.982"/><path d="m223.21 3.33l-7.74 15.08h2.18l7.74-15.08z"/><path d="m217.73 11.195c.597-.847.895-1.989.895-3.426s-.28-2.575-.84-3.416c-.561-.84-1.423-1.261-2.586-1.261-1.136 0-1.994.421-2.575 1.261-.582.841-.873 1.993-.873 3.459 0 1.437.287 2.572.862 3.405.574.833 1.422 1.249 2.542 1.249 1.121 0 1.98-.423 2.575-1.271m-1.551-1.4c-.166.503-.492.754-.98.754-.489 0-.819-.236-.992-.711-.172-.474-.258-1.163-.258-2.068s.082-1.588.247-2.048c.165-.459.492-.689.98-.689s.819.237.992.711c.172.475.258 1.164.258 2.069 0 .818-.082 1.479-.247 1.982"/><path d="m0 6.192h3.06v12.239h2.659v-12.239h3.059v-2.532h-8.778z"/><path d="m16.5 9.463h-3.354v-5.803h-2.66v14.771h2.66v-6.371h3.354v6.371h2.66v-14.771h-2.66z"/><path d="m24.413 11.805h3.313v-2.49h-3.313v-3.123h4.938v-2.532h-7.597v14.771h7.786v-2.533h-5.127z"/><path d="m43.22 10.803c.475-.654.713-1.501.713-2.542 0-1.533-.426-2.684-1.277-3.45-.851-.767-1.993-1.15-3.429-1.15h-3.925v14.771h2.659v-5.612h.862l2.291 5.612h2.86l-2.554-6.141c.724-.337 1.323-.833 1.799-1.487m-3.967-.433h-1.292v-4.114h1.146c.792 0 1.352.176 1.678.527s.489.865.489 1.54c0 1.365-.674 2.047-2.02 2.047"/><path d="m48.572 11.805h3.313v-2.49h-3.313v-3.123h4.938v-2.532h-7.597v14.771h7.786v-2.533h-5.127z"/><path d="m55.746 3.66h2.659v14.771h-2.659z"/><path d="m72.2 5.401c-.485-.598-1.076-1.037-1.772-1.319-.696-.281-1.487-.422-2.374-.422h-3.334v14.771h3.271c.858 0 1.639-.141 2.343-.422.703-.281 1.305-.725 1.804-1.329.499-.605.883-1.375 1.15-2.311.267-.936.4-2.051.4-3.345s-.126-2.405-.38-3.334c-.253-.929-.622-1.691-1.107-2.289m-1.339 7.546c-.084.581-.234 1.085-.451 1.513-.217.427-.514.763-.892 1.01s-.86.367-1.447.367h-.692v-9.579h.692c.587 0 1.069.122 1.447.367.378.246.675.585.892 1.02s.367.945.451 1.533c.083.588.126 1.219.126 1.891 0 .673-.043 1.299-.126 1.881"/><path d="m75.835 3.66h2.659v14.771h-2.659z"/><path d="m81.17 18.431h2.66v-6.391h3.46v-2.556h-3.46v-3.27h5.151v-2.554h-7.811z"/><path d="m90.77 18.431h2.66v-6.391h3.46v-2.556h-3.46v-3.27h5.15v-2.554h-7.81z"/><path d="m103.03 11.805h3.32v-2.49h-3.32v-3.123h4.94v-2.532h-7.6v14.771h7.79v-2.533h-5.13z"/><path d="m118.04 10.803c.475-.654.713-1.501.713-2.542 0-1.533-.426-2.684-1.277-3.45-.851-.767-1.993-1.15-3.429-1.15h-3.925v14.771h2.659v-5.612h.862l2.291 5.612h2.86l-2.554-6.141c.724-.337 1.323-.833 1.799-1.487m-3.967-.433h-1.292v-4.114h1.146c.792 0 1.352.176 1.678.527s.489.865.489 1.54c0 1.365-.674 2.047-2.02 2.047"/><path d="m123.39 11.805h3.32v-2.49h-3.32v-3.123h4.94v-2.532h-7.59v14.771h7.78v-2.533h-5.13z"/><path d="m136.81 9.779c0 .239.004.507.011.802.007.296.014.602.021.918.007.316.018.626.031.929s.021.566.021.791c-.07-.211-.155-.446-.253-.707-.099-.26-.201-.53-.307-.813-.105-.281-.211-.555-.316-.822s-.2-.514-.284-.738l-2.596-6.479h-2.659v14.771h2.406v-6.225c0-.225 0-.485 0-.78 0-.296-.004-.599-.011-.908-.008-.309-.015-.607-.021-.896-.007-.288-.011-.545-.011-.77.141.436.313.928.518 1.477.203.549.404 1.055.602 1.52l2.722 6.583h2.532v-14.771h-2.406v6.119"/><path d="m147.69 14.928c-.134.268-.274.482-.422.644-.147.162-.31.278-.485.349s-.377.105-.602.105c-.717 0-1.252-.439-1.604-1.319-.352-.879-.527-2.106-.527-3.682s.169-2.796.506-3.661c.338-.865.865-1.298 1.583-1.298.492 0 .857.148 1.098.443.238.296.456.781.653 1.456l2.469-.802c-.141-.534-.319-1.03-.538-1.487-.218-.457-.492-.852-.822-1.182-.331-.331-.725-.591-1.182-.781-.458-.189-1-.284-1.636-.284-.815 0-1.526.196-2.131.591-.605.394-1.107.936-1.509 1.624-.4.689-.7 1.498-.896 2.427-.197.929-.296 1.928-.296 2.996 0 1.056.096 2.047.285 2.976.189.928.481 1.733.876 2.416.394.683.893 1.221 1.498 1.614.604.394 1.314.591 2.131.591 1.14 0 2.043-.324 2.711-.971.668-.647 1.179-1.583 1.53-2.807l-2.279-.971c-.141.408-.277.746-.411 1.013"/><path d="m154.86 11.805h3.31v-2.49h-3.31v-3.123h4.93v-2.532h-7.59v14.771h7.78v-2.533h-5.12z"/><path d="m171.87 5.55c-.25 0-.45.21-.45.46s.2.45.45.45c.26 0 .46-.2.46-.45s-.2-.46-.46-.46"/><path d="m171.87 0c-.25 0-.45.2-.45.45s.2.46.45.46c.26 0 .46-.21.46-.46s-.2-.45-.46-.45"/><path d="m171.87 2.78c-.25 0-.45.199-.45.449s.2.461.45.461c.26 0 .46-.211.46-.461s-.2-.449-.46-.449"/><path d="m171.87 11.11c-.25 0-.45.199-.45.46 0 .25.2.449.45.449.26 0 .46-.199.46-.449 0-.261-.2-.46-.46-.46"/><path d="m171.87 8.33c-.25 0-.45.21-.45.46s.2.45.45.45c.26 0 .46-.2.46-.45s-.2-.46-.46-.46"/><path d="m171.87 16.67c-.25 0-.45.2-.45.45s.2.46.45.46c.26 0 .46-.21.46-.46s-.2-.45-.46-.45"/><path d="m171.87 13.89c-.25 0-.45.2-.45.45s.2.46.45.46c.26 0 .46-.21.46-.46s-.2-.45-.46-.45"/><path d="m171.87 19.44c-.25 0-.45.21-.45.46s.2.449.45.449c.26 0 .46-.199.46-.449s-.2-.46-.46-.46"/><path d="m296.12 0c-.25 0-.45.2-.45.45 0 .26.2.46.45.46s.46-.2.46-.46c0-.25-.21-.45-.46-.45"/><path d="m296.12 13.89c-.25 0-.45.2-.45.45 0 .26.2.46.45.46s.46-.2.46-.46c0-.25-.21-.45-.46-.45"/><path d="m296.12 11.11c-.25 0-.45.199-.45.46 0 .25.2.449.45.449s.46-.199.46-.449c0-.261-.21-.46-.46-.46"/><path d="m296.12 8.33c-.25 0-.45.21-.45.46s.2.45.45.45.46-.2.46-.45-.21-.46-.46-.46"/><path d="m296.12 2.78c-.25 0-.45.199-.45.449s.2.461.45.461.46-.211.46-.461-.21-.449-.46-.449"/><path d="m296.12 5.55c-.25 0-.45.21-.45.46s.2.45.45.45.46-.2.46-.45-.21-.46-.46-.46"/><path d="m296.12 16.67c-.25 0-.45.2-.45.45s.2.46.45.46.46-.21.46-.46-.21-.45-.46-.45"/><path d="m296.12 19.44c-.25 0-.45.21-.45.46s.2.449.45.449.46-.199.46-.449-.21-.46-.46-.46"/><path d="m310.31 8.795c.167.291.384.521.647.688s.579.252.945.252c.66 0 1.157-.205 1.494-.616.336-.411.504-.997.504-1.76v-1.08h-1.989v1.054h.9c0 .468-.063.798-.189.989-.126.192-.36.288-.702.288s-.586-.188-.733-.563-.221-.898-.221-1.57.07-1.192.212-1.562c.141-.369.383-.554.725-.554.216 0 .396.061.54.181.144.12.258.33.342.63l1.053-.342c-.138-.546-.372-.948-.702-1.206s-.734-.388-1.215-.388c-.366 0-.683.085-.949.252-.268.169-.486.399-.657.693s-.297.639-.378 1.035c-.081.396-.121.822-.121 1.278 0 .449.04.873.121 1.269.081.396.205.739.374 1.03"/><path d="m318.22 8.557h-2.18v-1.746h1.41v-1.062h-1.41v-1.332h2.1v-1.08h-3.24v6.3h3.32z"/><path d="m320.54 3.337l-1.611 6.3h1.152l.297-1.314h1.413l.297 1.314h1.161l-1.611-6.3h-1.098m.081 3.933l.171-.765c.029-.126.06-.261.09-.405.03-.144.057-.285.081-.423.023-.138.046-.266.067-.383.021-.117.037-.217.05-.301.012.077.028.178.049.301.021.123.045.255.072.396.027.141.056.285.086.432.029.147.06.28.09.4l.171.747h-.927"/><path d="m327.78 9.637l-1.089-2.619c.309-.144.563-.355.767-.635.203-.278.304-.64.304-1.084 0-.654-.182-1.145-.544-1.472-.363-.327-.851-.49-1.463-.49h-1.674v6.3h1.134v-2.394h.368l.978 2.394h1.22m-2.01-3.438h-.551v-1.755h.489c.338 0 .576.075.715.226.14.149.209.369.209.657 0 .582-.287.872-.862.872"/><path d="m332.16 9.735c.246 0 .478-.048.693-.144s.414-.231.594-.405l.306.45h1.206l-.891-1.35c.198-.42.348-.906.45-1.458l-.847-.378c-.029.161-.064.316-.104.463-.039.147-.082.29-.13.428l-1.215-1.845c-.103-.156-.178-.284-.226-.383s-.071-.221-.071-.364c0-.126.045-.234.135-.324s.21-.135.359-.135c.204 0 .392.033.563.099.172.066.344.165.518.297l.522-.918c-.246-.18-.492-.313-.738-.4s-.531-.131-.854-.131c-.24 0-.46.033-.659.1-.199.065-.371.162-.517.288s-.259.283-.34.473c-.082.188-.123.403-.123.643 0 .234.041.446.122.635.081.189.19.383.328.581l.216.323c-.348.252-.604.52-.77.802s-.247.603-.247.963c0 .527.142.941.426 1.242.283.3.715.449 1.293.449m-.544-2.2c.068-.153.199-.308.391-.464l.892 1.306c-.204.216-.441.324-.711.324-.216 0-.383-.063-.5-.189-.116-.126-.175-.294-.175-.504 0-.162.034-.319.104-.473"/><path d="m340.07 3.337h-1.098l-1.611 6.3h1.152l.297-1.314h1.413l.297 1.314h1.161l-1.611-6.3m-1.017 3.933l.171-.765c.029-.126.06-.261.09-.405.03-.144.057-.285.081-.423.023-.138.046-.266.067-.383.021-.117.037-.217.05-.301.012.077.028.178.049.301.021.123.045.255.072.396.027.141.056.285.086.432.029.147.06.28.09.4l.171.747h-.927"/><path d="m346.17 7.904c.113-.399.171-.874.171-1.427 0-.552-.054-1.025-.162-1.422-.108-.396-.266-.722-.473-.977s-.459-.442-.756-.563-.635-.18-1.013-.18h-1.422v6.3h1.396c.365 0 .698-.06.998-.18.301-.12.557-.31.77-.567s.377-.586.491-.985m-1.035-.606c-.036.248-.1.463-.192.646-.093.182-.219.325-.38.43s-.367.156-.617.156h-.296v-4.086h.296c.25 0 .456.053.617.157s.287.249.38.435.156.403.192.654.054.52.054.807c0 .286-.018.554-.054.802"/><path d="m349.76 3.337l-.603 3.042c-.024.114-.052.247-.081.4-.03.153-.061.308-.09.464-.03.155-.058.3-.081.432-.024.132-.039.234-.045.306-.013-.071-.029-.174-.05-.306-.021-.132-.047-.274-.077-.428-.029-.153-.06-.306-.09-.459-.029-.153-.057-.289-.081-.409l-.611-3.042h-1.161l1.521 6.3h1.099l1.503-6.3h-1.152"/><path d="m351.76 3.337h1.134v6.3h-1.134z"/><path d="m354.39 8.795c.167.291.381.521.639.688s.561.252.909.252c.485 0 .871-.138 1.156-.414.285-.275.502-.675.652-1.196l-.972-.414c-.061.174-.119.318-.176.432-.057.114-.117.206-.18.274-.063.069-.132.119-.207.148-.075.03-.161.045-.257.045-.306 0-.534-.188-.684-.563-.15-.375-.226-.898-.226-1.57s.072-1.192.216-1.562c.145-.369.369-.554.676-.554.21 0 .365.063.468.189.102.126.194.333.279.621l1.053-.342c-.061-.229-.137-.439-.229-.635s-.21-.363-.352-.504c-.141-.141-.309-.252-.504-.333-.194-.081-.427-.122-.697-.122-.348 0-.651.085-.909.252-.258.169-.473.399-.644.693s-.298.639-.382 1.035c-.084.396-.126.822-.126 1.278 0 .449.04.873.121 1.269.081.396.205.739.374 1.03"/><path d="m361.91 8.557h-2.19v-1.746h1.42v-1.062h-1.42v-1.332h2.11v-1.08h-3.24v6.3h3.32z"/><path d="m312.46 13.402c-.048.133-.1.27-.151.409-.053.141-.101.277-.144.408-.043.132-.08.255-.111.369s-.055.206-.074.278c-.011-.072-.034-.164-.066-.274-.032-.111-.069-.233-.111-.366-.041-.132-.085-.269-.133-.41-.048-.141-.098-.28-.152-.42l-.479-1.28-1.241-.008 1.596 3.952-.015 2.358 1.134.007.015-2.376 1.653-3.914-1.225-.008-.495 1.274"/><path d="m317.97 13c-.166-.291-.378-.521-.639-.692-.26-.169-.573-.256-.939-.258s-.683.081-.95.246c-.269.167-.489.396-.662.689s-.301.637-.384 1.032c-.084.396-.127.822-.129 1.278-.003.449.034.873.113 1.269.078.397.2.741.367 1.033.165.292.381.522.644.692s.577.256.943.258c.365.002.682-.08.946-.246.266-.166.483-.396.657-.688.173-.293.301-.638.385-1.033.083-.396.126-.821.129-1.277.003-.45-.035-.873-.113-1.27-.079-.396-.202-.74-.368-1.033m-.892 3.875c-.145.367-.384.55-.72.548-.342-.002-.585-.191-.729-.567-.146-.376-.216-.899-.211-1.571.004-.672.077-1.192.222-1.561.143-.368.386-.551.728-.549.336.002.576.192.722.567.144.375.214.9.21 1.572-.005.672-.078 1.191-.221 1.561"/><path d="m321.82 15.987c-.004.547-.063.932-.178 1.152-.114.223-.303.333-.565.331-.257-.002-.444-.114-.566-.338-.12-.222-.179-.607-.175-1.154l.023-3.805-1.135-.007-.023 3.798c-.003.39.03.745.098 1.067.067.321.175.597.324.825.148.229.341.406.578.529.237.125.523.188.86.19.349.002.643-.056.881-.175.238-.118.432-.289.581-.514.148-.224.257-.497.325-.821.067-.324.103-.689.105-1.097l.023-3.78-1.134-.008-.023 3.805"/><path d="m327.64 13.244c.21.002.365.065.467.192.101.127.192.334.275.623l1.055-.335c-.059-.229-.134-.44-.226-.637-.092-.195-.208-.364-.349-.506-.14-.142-.307-.254-.502-.336-.193-.083-.426-.125-.696-.127-.348-.002-.651.081-.91.247-.259.167-.476.396-.648.688-.173.293-.302.638-.388 1.033-.087.396-.132.821-.134 1.277-.003.449.034.874.113 1.27.078.397.2.74.367 1.032.165.292.378.523.635.692.257.17.559.256.907.258.485.003.872-.132 1.159-.407.286-.273.506-.671.659-1.191l-.969-.421c-.062.174-.121.318-.179.431-.058.114-.118.206-.182.273-.063.069-.132.118-.207.147-.076.029-.162.044-.258.043-.306-.002-.533-.19-.68-.566-.148-.376-.221-.899-.216-1.571.004-.672.079-1.192.226-1.561s.372-.552.679-.55"/><path d="m331.4 12.242l-1.65 6.29 1.152.007.305-1.313 1.413.009.289 1.316 1.161.007-1.572-6.31-1.098-.007m.057 3.933l.176-.764c.029-.125.061-.26.092-.404.031-.144.059-.285.084-.422.024-.138.047-.266.069-.383.021-.117.039-.217.052-.301.012.077.027.178.047.302.021.123.044.255.07.396.026.141.054.285.083.433.028.147.058.28.087.4l.167.748-.927-.006"/><path d="m337.44 14.889c-.0001.103 0 .217.002.343s.004.256.007.392c.003.135.006.267.011.396.006.129.008.241.008.338-.03-.091-.065-.19-.106-.302-.042-.112-.084-.228-.129-.348-.044-.12-.089-.238-.133-.352-.044-.114-.083-.221-.119-.316l-1.09-2.77-1.133-.007-.039 6.3 1.025.007.017-2.655c0-.096.0001-.207.002-.333 0-.126-.0001-.255-.003-.387s-.004-.26-.006-.383c-.003-.124-.004-.233-.003-.329.059.187.131.396.217.632.085.234.17.451.253.649l1.144 2.815 1.079.007.039-6.3-1.025-.007-.017 2.609"/><path d="m341 13.382l1.31.008-.03 5.219 1.13.007.03-5.22 1.31.008.001-1.08-3.75-.022z"/><path d="m348.73 15.396c.205-.277.308-.639.311-1.083.004-.654-.175-1.146-.535-1.475s-.847-.495-1.459-.499l-1.674-.011-.039 6.3 1.134.007.015-2.394.368.003.963 2.399 1.22.008-1.073-2.626c.31-.142.566-.353.771-.63m-1.691-.195l-.551-.004.012-1.755.489.003c.338.003.575.079.713.23.139.15.207.37.205.658-.004.582-.293.87-.868.867"/><path d="m352.33 16.18c-.004.547-.063.932-.178 1.152-.114.222-.303.332-.565.331-.257-.002-.444-.114-.566-.338-.12-.223-.179-.607-.175-1.154l.023-3.805-1.135-.007-.023 3.798c-.003.39.03.745.098 1.066.067.322.175.598.324.825.148.229.341.407.578.53.237.125.523.188.86.19.349.002.643-.056.881-.175.238-.118.432-.289.581-.514.148-.224.257-.498.325-.821.067-.324.103-.69.105-1.098l.023-3.78-1.134-.007-.023 3.805"/><path d="m357.39 15.781c-.129-.159-.292-.308-.489-.443-.198-.136-.432-.277-.702-.423-.175-.091-.318-.176-.433-.255-.113-.079-.205-.156-.273-.235-.069-.078-.118-.157-.147-.235s-.045-.165-.044-.261c.0001-.156.057-.287.164-.391.109-.104.253-.155.434-.154.107 0 .203.001.287.028s.164.051.239.096c.073.046.148.104.223.177.075.072.156.16.247.263l.751-.742c-.227-.296-.469-.521-.729-.676-.26-.154-.588-.233-.984-.235-.264-.002-.505.041-.724.126-.218.086-.403.205-.557.357-.152.151-.271.331-.355.538-.085.206-.128.426-.129.66-.002.264.03.493.099.688.068.196.167.372.296.528.128.157.285.299.471.426.186.128.396.252.631.373.366.195.618.37.756.527.137.157.204.325.203.505-.0001.21-.06.376-.178.498-.118.123-.294.183-.527.182-.192-.0001-.386-.061-.58-.179s-.387-.301-.576-.548l-.771.814c.216.271.475.505.779.702.306.196.67.296 1.097.299.294.002.557-.042.791-.13.233-.089.431-.212.593-.37.161-.158.287-.347.374-.564.087-.219.133-.459.135-.724.0001-.264-.027-.494-.087-.689-.06-.194-.153-.373-.281-.533"/><path d="m358.18 13.487l1.3.008-.03 5.22 1.13.008.04-5.22 1.3.008.001-1.08-3.75-.024z"/>
    </g>
</svg>