<?xml version="1.0" encoding="utf-8"?>
<!-- Generator: Adobe Illustrator 17.1.0, SVG Export Plug-In . SVG Version: 6.00 Build 0)  -->
<!DOCTYPE svg PUBLIC "-//W3C//DTD SVG 1.1//EN" "http://www.w3.org/Graphics/SVG/1.1/DTD/svg11.dtd">
<svg version="1.1" id="Layer_1" xmlns="http://www.w3.org/2000/svg" xmlns:xlink="http://www.w3.org/1999/xlink" x="0px" y="0px"
	 viewBox="0 0 310.3 274" enable-background="new 0 0 310.3 274" xml:space="preserve">
<g>
	<path fill="#A1C900" d="M222.3,41c3.7,1.9,4,1.9,6.8-0.4c11-9.3,21.9-18.7,32.9-28.1c1.1-0.9,2-2.2,3.9-2.4c0.1,0.5,0.4,1,0.4,1.5
		c-0.1,0.7-0.2,1.3,0,2.1c0.5,1.8,0.6,3.8,0.8,5.7c0.1,1.1-0.3,2-1.1,2.8c-1.6,1.6-3.1,3.2-4.7,4.8c-9.8,9.2-19.7,18.5-29.6,27.7
		c-1.2,1.1-2.3,2.3-3.5,3.4v5.7c0.8-0.3,1.5-0.4,2-0.7c0.9-0.6,1.6-1.3,2.4-2c8.9-8.3,17.7-16.7,26.6-25c2.4-2.2,4.8-4.4,7.2-6.6
		c0.9,2.2,1.1,8.5,0.6,16.1c-0.9-0.4-2-0.3-2.9,0.7c-7,8.9-16.1,15.7-24.3,23.3c-2.6,2.4,1.1,6.2,3.8,4.1c0.1,0,0.1,0.1,0.1,0.1
		c2.8-1.5,5-4,7.4-6.1c2.5-2.1,4.9-4.3,7.4-6.5c2.5-2.1,4.7-4.5,7.3-6.2c1.5,0.5,1.1,1.5,1.1,2.3c0,9.5-0.1,19-0.2,28.5
		c0,1.5-0.3,3,0.5,4.5h2.1c0.9-1.5,0.7-3,0.7-4.4c0.2-8.2,0.3-16.3,0.4-24.5c0-1.4-0.3-2.9,0.5-4.5c0.6,0.2,1.2,0.3,1.7,0.6
		c7.7,4.9,15.4,9.8,23,14.6c1.3,1.1,2.5,2.2,3.7,3.5c2.5,2.7,6.5-1.3,4-4c-8.9-9.4-21.2-14.4-31.7-21.7c-0.2-0.2-0.5-0.4-0.7-0.6
		c-0.6-2.5-0.2-5.3-0.3-8.1c-0.1-2.7,0-5.3,0-7.8c1.1-0.8,1.5-0.1,2.1,0.4c10.6,7.9,21.1,15.8,31.8,23.7c1.3,0.9,2.9,1.4,4.7,2.2
		c0.9-4-0.4-6.2-3-8.2c-10.4-7.7-20.6-15.5-30.9-23.3c-5.4-4.1-4.4-2.9-4.5-9.1c0-3.4,0-6.8,0.2-9.9c1.2-0.8,1.7-0.1,2.3,0.3
		c2.9,2.1,5.8,4.2,8.6,6.3c8.1,6.1,16.1,12.2,24.2,18.3c1.2,0.9,2.3,2.4,4.4,2c-0.2-1.6-0.3-3.2-0.6-4.7c-0.1-0.6-0.7-1.3-1.3-1.7
		c-0.9-0.8-1.9-1.5-2.8-2.2c-6.4-5-12.8-10.1-19.2-15.1c-1.5-1.2-3.1-2.2-4.7-3.4c-1.5-1-3-1.9-4.4-3.1c-2.7-2.4-5.9-3.9-9-5.7
		c-0.6,0.4-1.2,0.8-1.8,1.3c-2.3,2.1-4.4,4.4-6.8,6.4c-11.4,9.9-22.9,19.8-34.4,29.7C224.2,38.4,222.6,39.2,222.3,41z"/>
	<path fill="#A1C900" d="M92.4,123.1c0.2,12.4,0.3,24.8,0.5,37.2c0,3-1.2,5.2-3.4,7.1c-4,3.3-7.8,6.6-11.9,9.8
		c-11.5,8.9-22.1,18.7-31.8,29.5c-4.4,4.9-9.6,9.1-14.5,13.7c-2,1.8-4.1,3.5-6,5.5c-7.1,7.3-14.5,14.2-22.6,21
		c-0.8-0.7-1.6-1.4-2.4-2.1c0.7,5.3,1.3,10.7,2,16c0,0,0.1,0,0.1,0c0.1,0,0.2,0,0.4,0c0.2,0,0.2,0,0.4,0c0.3,0,0.6-0.1,1-0.1
		c0.1-0.3,0.1-0.5,0.2-0.8c3.9-4.9,9.1-8.7,13.1-13.4c7.5-8.8,16.4-16,24.7-23.9c8.9-8.5,17.1-17.8,26-26.3
		C73.9,191,80,186.5,86,182c1.8-1.4,4.2-2.6,6.9-0.3c-0.1,11.1-0.1,22.6-0.2,34.2c-6.2,5.4-12.4,10.7-18.4,16.1
		c-3.8,3.4-7.4,7.1-11.1,10.6c-4.4,4.2-8.5,8.6-13.2,12.3c-6.8,5.5-13.9,10.6-20.9,15.9c-1.2,0.9-3.3,3.1-3.3,3.1h14.1
		c0,0,12.8-10.4,22-17.7c0.9-0.7,1.8-1.6,2.6-2.6c7.1-9.1,16.2-16.1,24.5-23.9c0.8-0.7,1.9-1.1,3.2-1.9c0.4,1.4,0.9,2.1,0.9,2.9
		c0,8.8-0.1,17.5-0.2,26.6c-2,1.8-4,3.7-6,5.5l-11.7,11h10.9h2.4c0,0,1.3-4.3,3.9-3c1.7,0.9,1.3,3,1.3,3h10.7c0,0-0.1-3.1,0.9-3
		c2.7,0.3,4.7,3,4.7,3h12.4c0,0-6.1-6-11.1-10.5c-2-1.8-4-3.6-6-5.4c-0.1-9.1-0.2-17.8-0.3-26.6c0-0.8,0.5-1.6,0.9-2.9
		c1.3,0.7,2.4,1.1,3.2,1.9c8.4,7.8,17.6,14.7,24.7,23.8c0.7,0.9,1.6,1.8,2.6,2.5c9.2,7.2,21.8,17.3,21.8,17.3h14.4
		c0,0-2.1-2-3.3-2.9c-7-5.3-14.2-10.3-21-15.7c-4.7-3.8-8.9-8.1-13.3-12.3c-3.7-3.5-7.3-7.2-11.2-10.6c-6.1-5.4-12.3-10.7-18.5-16
		c-0.2-11.6-0.3-23-0.4-34.2c2.7-2.3,5.1-1.2,7,0.2c6,4.5,12.2,9,17.6,14.1c9,8.5,17.2,17.7,26.2,26.1c8.3,7.9,17.3,15,24.9,23.7
		c4.3,4.9,9.9,8.7,13.9,14.1c0.2,0.3,1.1,0,2.3,0c1.7-3.9,0.4-8.1,0.9-11.8c-9-7.3-17.2-14.9-25-22.8c-1.9-1.9-4-3.6-6-5.4
		c-4.9-4.5-10.1-8.7-14.5-13.6c-9.8-10.8-20.4-20.5-31.9-29.3c-4.1-3.1-8-6.5-12-9.7c-2.2-1.8-3.5-4-3.4-7
		c0.2-12.4,0.2-24.8,0.3-37.2c0-0.5,0.5-1,0.9-1.5c1.8-0.6,2.7,0.9,3.7,1.8c9.2,8.3,18.3,16.7,26.5,26c5.6,6.4,11.8,12.1,18.6,17.2
		c2.9,2.1,5.4,4.9,7.9,7.4c3.9,3.8,7.2,8.2,12.2,10.8c1,0.5,1.9,1.5,2.6,2.4c5.2,6.8,11.7,12.1,18.3,17.5c1.9-4.1,1.9-4.1,1-12
		c-14.4-13.4-28.5-27.4-44.2-39.7c-5-3.9-9.2-8.7-13.7-13.2c-1.9-1.9-3.9-3.8-5.8-5.7c-9.3-9-18.6-17.9-27.7-26.7
		c-0.1-9.2-0.2-17.9-0.3-26.4c2.1-1.3,3,0.1,4.1,1c11.1,9.4,20,20.9,30.1,31.2c1.5,1.5,2.9,3.1,4.5,4.4
		c10.2,7.8,18.2,17.5,26.3,27.3c5.4,6.5,11.7,12.1,17.6,18.1c2.7,2.7,5.6,5.2,8.9,8.2c1.6-4.5,1.1-8.4,0.9-12.2
		c-4.7-4.5-9.5-8.6-13.8-13.3c-4.9-5.3-9.3-11-14-16.5c-1.2-1.4-2.5-2.6-3.8-3.9c-8.2-7.6-16.3-15.2-24.5-22.9
		c-1.1-1-2.3-2.1-3.1-3.3c-5.8-9.1-14.6-15.2-22-22.7c-3.8-3.8-7.7-7.6-11.3-11.2c-0.7-8-0.3-15.3-0.5-24.4c2.8,2.3,4.2,3.2,5.4,4.4
		c8.1,8.6,16,17.3,24.1,25.9c7.9,8.3,15.8,16.5,23.7,24.8c0.2,0.2,0.5,0.4,0.6,0.6c6.7,9.8,15.8,17.4,23.6,26.2
		c2,2.3,4.1,4.5,6.2,6.6c2.6,2.4,5.3,4.7,7.8,7c2.4-1.4,1.5-3.4,1.6-5c0.1-1.8,0-3.6,0-4.9c-10.3-11.3-20.1-22.4-30.1-33.2
		c-7.2-7.7-14.7-15.2-21.9-22.9c-3.9-4.2-7.7-8.5-11.4-12.9c-3.7-4.3-7.4-8.8-11.1-13.2c-1-1.2-2.3-2.1-2.9-3.5
		c-3.5-8.4-11.6-11.7-18.2-17.1c-0.9,0.2-1.7,0.5-2.6,0.8c-1.4-0.5-2.9-1-4.4-1.4c-6.5,5.5-14.7,8.8-18.1,17.2
		c-0.5,1.3-1.9,2.3-2.9,3.5c-3.7,4.4-7.3,8.9-11,13.2c-3.7,4.4-7.4,8.7-11.3,12.9c-7.2,7.7-14.6,15.2-21.8,23
		c-9.1,9.9-18,20-27.3,30.4c-0.2-0.2-0.3-0.3-0.5-0.5c-0.4,2.8-0.8,5.6-1.3,8.4c0,1.4-0.1,2.9-0.1,4.3c0.2,0.2,0.5,0.4,0.8,0.6
		c0.3-0.3,0.7-0.6,1.1-1c0.4,0.3,0.7,0.6,1.1,1c1.6-1,1.7-2.2,1.6-3.4c1.4-1.2,2.7-2.4,4-3.7c2.2-2.1,4.2-4.3,6.2-6.6
		c7.8-8.9,16.8-16.5,23.5-26.4c0.2-0.2,0.4-0.4,0.6-0.6c7.9-8.3,15.8-16.6,23.6-24.9c8-8.6,15.9-17.4,24-26c1.1-1.2,2.6-2.2,5.3-4.5
		c-0.2,9.1,0.3,16.5-0.3,24.4c-3.6,3.6-7.4,7.5-11.2,11.3C73.6,84,64.8,90.2,59.1,99.3c-0.8,1.2-2,2.3-3.1,3.3
		c-8.1,7.7-16.2,15.3-24.3,23c-1.3,1.2-2.6,2.5-3.8,3.9c-4.6,5.5-9,11.3-13.9,16.6c-3.6,3.9-7.5,7.5-11.4,11.2
		c-0.8-0.7-1.5-1.5-2.3-2.2c-0.1,4.4-0.1,8.7-0.1,13.1c0.1,0.1,0.2,0.2,0.2,0.2c0.2,1,0.5,2.1,0.9,3.2c0.5-0.4,0.9-0.8,1.3-1.2
		c0.5,0.4,0.9,0.8,1.4,1.2c0.4-1.1,0.7-2.2,0.8-3.2c1.8-1.7,3.6-3.3,5.3-5c5.9-6,12.2-11.7,17.5-18.2c8.1-9.8,16.1-19.6,26.2-27.4
		c1.6-1.3,3.1-2.9,4.5-4.4C68.4,103,77.3,91.5,88.3,82c1.1-0.9,2-2.3,4.1-1c-0.1,8.5-0.1,17.3-0.2,26.4
		c-9.1,8.8-18.3,17.8-27.6,26.9c-1.9,1.9-3.8,3.8-5.8,5.7c-4.5,4.4-8.7,9.3-13.6,13.2c-15,11.9-28.6,25.4-42.4,38.5
		c-0.9-0.8-1.8-1.7-2.7-2.5c0,4.4,0,8.8,0,13.2c0.5,0.4,1,0.9,1.5,1.3c0.2,0.4,0.4,0.9,0.7,1.5l0.5-0.5c0.2,0.1,0.4,0.3,0.5,0.5
		c0.3-0.6,0.5-1,0.7-1.5c5.9-4.9,11.8-9.9,16.4-16.1c0.7-0.9,1.6-1.9,2.6-2.5c4.9-2.6,8.3-7,12.1-10.8c2.6-2.6,5-5.3,7.9-7.5
		c6.8-5.1,12.9-10.9,18.5-17.3c8.1-9.4,17.2-17.8,26.3-26.2c1-0.9,1.9-2.4,3.7-1.8C91.9,122.1,92.4,122.6,92.4,123.1z"/>
</g>
</svg>
